<svg xmlns="http://www.w3.org/2000/svg" viewBox="0 0 22 20"><path d="M7.361 5.11a.435.435 0 0 1-.385-.235.41.41 0 0 1 .034-.43L10.128.17c.165-.225.553-.226.717 0l3.118 4.276a.41.41 0 0 1 .032.434.44.44 0 0 1-.394.23h-1.783v3.833c-.462.303-.904.64-1.319 1.005a11.705 11.705 0 0 0-1.36-1.03V5.11H7.361zM5.848 8.8a9.199 9.199 0 0 1 3.931 2.039 11.434 11.434 0 0 0-1.33 2.389 6.51 6.51 0 0 0-3-1.825l-.628-.235v.66l-.212 1.165a.426.426 0 0 1-.303.328.461.461 0 0 1-.447-.114L.121 9.444a.416.416 0 0 1-.115-.364.428.428 0 0 1 .24-.307l4.836-2.265a.466.466 0 0 1 .262-.036.425.425 0 0 1 .345.495L5.391 8.69l.457.11zm15.906-.027c.126.06.215.174.239.308a.407.407 0 0 1-.113.362l-3.748 3.773a.49.49 0 0 1-.51.088.46.46 0 0 1-.233-.345l-.204-1.075v-.66l-.635.178c-2.763.775-4.696 3.289-4.701 6.118v2.064a.393.393 0 0 1-.12.283.436.436 0 0 1-.301.122H9.596a.434.434 0 0 1-.301-.123.395.395 0 0 1-.12-.282V17.52c.007-4.15 2.877-7.733 6.98-8.716l.445-.194-.293-1.617a.461.461 0 0 1 .075-.361.433.433 0 0 1 .347-.167c.065 0 .129.015.191.043l4.834 2.264z" fill="#95A6B1" fill-rule="evenodd"/></svg>